<svg width="103" height="50" viewBox="0 0 103 50" fill="none" xmlns="http://www.w3.org/2000/svg">
<path d="M17.7583 33.4705C15.6533 31.3992 14.5732 28.5027 14.5732 24.713C14.5732 20.9253 15.6575 18.0678 17.7728 16.0069C19.8759 13.958 23.1732 12.8843 27.7702 12.8843C32.3674 12.8843 35.6585 13.9581 37.7503 16.0061C39.8549 18.0665 40.9344 20.9462 40.9344 24.713C40.9344 28.481 39.8541 31.3995 37.7494 33.4705C35.6575 35.5289 32.3669 36.6079 27.7702 36.6079C23.1723 36.6079 19.8496 35.5284 17.7583 33.4705ZM32.5865 29.7313C33.5778 28.3793 34.0562 26.6948 34.0562 24.713C34.0562 22.729 33.5768 21.0784 32.5865 19.7278C31.5501 18.3143 29.9154 17.651 27.8029 17.651C25.7 17.651 23.958 18.3083 22.9065 19.7255C21.904 21.0768 21.4187 22.7506 21.4187 24.713C21.4187 26.6756 21.904 28.3539 22.9053 29.7153C23.9547 31.1422 25.6298 31.8082 27.8029 31.8082C29.9842 31.8082 31.5517 31.1426 32.5865 29.7313Z" fill="black" stroke="black"/>
<path d="M82.9952 30.7945V31.3059L83.5065 31.2944C85.1361 31.2577 86.4156 31.2209 87.3429 31.184V36.4257H71.0501V31.1807C73.1501 31.2564 74.7606 31.2945 75.8786 31.2945H76.3786V30.7945V19.3607L75.4225 19.1557C74.783 20.5785 73.528 21.5791 71.5542 22.1122C71.4752 19.9249 71.271 17.8987 70.9401 16.0347C72.4264 15.8031 73.5406 15.5138 74.2334 15.1459C74.9575 14.7613 75.5464 14.3228 75.9792 13.8213C76.2844 13.4677 76.5104 13.2048 76.6565 13.0335H82.9952V30.7945Z" fill="black" stroke="black"/>
<path d="M62.1212 24.47L56.7383 19.0182C56.5095 18.8193 56.1663 18.847 55.9701 19.079C55.7958 19.2833 55.7958 19.5927 55.9701 19.797L60.9062 24.8014L56.1118 29.6622C55.8993 29.8776 55.8993 30.2256 56.1118 30.441C56.3243 30.6564 56.6675 30.6564 56.88 30.441L62.1212 25.1328C62.301 24.9505 62.301 24.6523 62.1212 24.47Z" fill="black" stroke="black" stroke-width="2" stroke-miterlimit="10"/>
<path d="M56.2526 24.47L50.8697 19.0182C50.6408 18.8193 50.2976 18.847 50.1015 19.079C49.9271 19.2833 49.9271 19.5927 50.1015 19.797L55.0376 24.8014L50.2431 29.6622C50.0306 29.8776 50.0306 30.2256 50.2431 30.441C50.4556 30.6564 50.7988 30.6564 51.0113 30.441L56.2526 25.1328C56.4324 24.9505 56.4324 24.6523 56.2526 24.47Z" fill="black" stroke="black" stroke-width="2" stroke-miterlimit="10"/>
<path d="M101.366 2H2V48.3429H101.366V2Z" stroke="black" stroke-width="3" stroke-miterlimit="10"/>
</svg>
